<?xml version="1.0" encoding="utf-8"?>
<!-- Generator: Adobe Illustrator 22.0.1, SVG Export Plug-In . SVG Version: 6.00 Build 0)  -->
<svg version="1.1" id="Layer_1" xmlns="http://www.w3.org/2000/svg" xmlns:xlink="http://www.w3.org/1999/xlink" x="0px" y="0px"
	 viewBox="0 0 400 400" style="enable-background:new 0 0 400 400;" xml:space="preserve">
<style type="text/css">
	.st0{fill:none;stroke:#000000;stroke-width:9;}
	.st1{enable-background:new    ;}
	.st2{font-family:'Rubik-Medium';}
	.st3{font-size:35px;}
</style>
<title>tw</title>
<desc>Created with Sketch.</desc>
<g id="Page-1">
	<g id="tw">
		<path id="Rectangle-3" class="st0" d="M36.2,189l86.8-86.8c19-19,49.8-19,68.7,0l0,0c19,19,19,49.8,0,68.7l-86.8,86.8
			c-19,19-49.8,19-68.7,0l0,0C17.2,238.8,17.2,208,36.2,189z"/>
		<g class="st1">
			<path d="M174.1,222.2v5c0,0.8,0.3,1.5,0.9,2c0.6,0.5,1.4,0.7,2.4,0.7c1,0,1.7-0.1,2.1-0.4c0.4-0.3,0.8-0.7,1.1-1.3
				s0.7-0.8,1.2-0.8h7.1c0.2,0,0.4,0.1,0.5,0.2c0.1,0.1,0.2,0.3,0.2,0.5c0,2-1,3.8-2.9,5.5c-1,0.8-2.2,1.5-3.8,2
				c-1.6,0.5-3.5,0.8-5.6,0.8s-4.1-0.3-5.9-1c-1.8-0.6-3.2-1.7-4.3-3.2c-1.1-1.5-1.7-3.3-1.7-5.4v-3.8c0-2.2,0.6-4,1.7-5.5
				c2.1-2.8,5.6-4.2,10.5-4.2c2,0,3.8,0.3,5.4,0.8c1.6,0.5,2.9,1.2,3.8,2c1.9,1.7,2.9,3.5,2.9,5.5c0,0.2-0.1,0.4-0.2,0.5
				c-0.1,0.1-0.3,0.2-0.5,0.2h-7.1c-0.5,0-0.9-0.3-1.2-0.8s-0.7-1-1.1-1.3c-0.4-0.3-1.1-0.4-2.1-0.4c-1,0-1.8,0.2-2.4,0.7
				C174.4,220.7,174.1,221.4,174.1,222.2z"/>
			<path d="M214.5,224c1.5,1.1,2.3,2.7,2.3,4.9c0,2.2-1.1,3.9-3.3,5.3c-2.2,1.3-5.1,2-8.8,2s-6.5-0.7-8.5-2c-2-1.3-3-3-3-4.9
				c0-0.5,0.3-0.7,0.8-0.7h6.7c0.5,0,0.8,0.1,1.1,0.4c0.6,0.6,1.7,0.8,3.2,0.8c2.1,0,3.1-0.3,3.1-0.9c0-0.4-0.3-0.7-1-0.9
				c-0.7-0.2-2-0.4-3.9-0.6c-6.2-0.7-9.3-3-9.3-6.9c0-2.2,1-3.9,3-5.3c2-1.3,4.6-2,8-2c3.3,0,6,0.7,8.1,2.2s3.1,3,3.1,4.6
				c0,0.2-0.1,0.4-0.2,0.5s-0.3,0.2-0.6,0.2h-7c-0.4,0-0.7-0.1-1-0.4c-0.5-0.5-1.3-0.7-2.4-0.7c-1.5,0-2.2,0.3-2.2,0.9
				c0,0.3,0.3,0.6,0.9,0.7c0.6,0.2,1.7,0.4,3.4,0.6C210.4,222.2,212.9,222.9,214.5,224z"/>
			<path d="M242.3,224c1.5,1.1,2.3,2.7,2.3,4.9c0,2.2-1.1,3.9-3.3,5.3c-2.2,1.3-5.1,2-8.8,2s-6.5-0.7-8.5-2c-2-1.3-3-3-3-4.9
				c0-0.5,0.3-0.7,0.8-0.7h6.7c0.5,0,0.8,0.1,1.1,0.4c0.6,0.6,1.7,0.8,3.2,0.8c2.1,0,3.1-0.3,3.1-0.9c0-0.4-0.3-0.7-1-0.9
				c-0.7-0.2-2-0.4-3.9-0.6c-6.2-0.7-9.3-3-9.3-6.9c0-2.2,1-3.9,3-5.3c2-1.3,4.6-2,8-2c3.3,0,6,0.7,8.1,2.2s3.1,3,3.1,4.6
				c0,0.2-0.1,0.4-0.2,0.5s-0.3,0.2-0.6,0.2h-7c-0.4,0-0.7-0.1-1-0.4c-0.5-0.5-1.3-0.7-2.4-0.7c-1.5,0-2.2,0.3-2.2,0.9
				c0,0.3,0.3,0.6,0.9,0.7c0.6,0.2,1.7,0.4,3.4,0.6C238.2,222.2,240.8,222.9,242.3,224z"/>
			<path d="M257.7,222.2v5c0,0.8,0.3,1.5,0.9,2c0.6,0.5,1.4,0.7,2.4,0.7c1,0,1.7-0.1,2.1-0.4c0.4-0.3,0.8-0.7,1.1-1.3
				s0.7-0.8,1.2-0.8h7.1c0.2,0,0.4,0.1,0.5,0.2c0.1,0.1,0.2,0.3,0.2,0.5c0,2-1,3.8-2.9,5.5c-1,0.8-2.2,1.5-3.8,2
				c-1.6,0.5-3.5,0.8-5.6,0.8s-4.1-0.3-5.9-1s-3.2-1.7-4.3-3.2c-1.1-1.5-1.7-3.3-1.7-5.4v-3.8c0-2.2,0.6-4,1.7-5.5
				c2.1-2.8,5.6-4.2,10.5-4.2c2,0,3.8,0.3,5.4,0.8c1.6,0.5,2.9,1.2,3.8,2c1.9,1.7,2.9,3.5,2.9,5.5c0,0.2-0.1,0.4-0.2,0.5
				c-0.1,0.1-0.3,0.2-0.5,0.2h-7.1c-0.5,0-0.9-0.3-1.2-0.8s-0.7-1-1.1-1.3s-1.1-0.4-2.1-0.4c-1,0-1.8,0.2-2.4,0.7
				C258,220.7,257.7,221.4,257.7,222.2z"/>
			<path d="M300.7,222.7v3.9c0,2.2-0.5,4-1.6,5.5c-1.1,1.5-2.5,2.5-4.3,3.1c-1.8,0.6-3.9,0.9-6.3,0.9s-4.5-0.3-6.3-0.9
				c-1.8-0.6-3.2-1.7-4.3-3.1s-1.6-3.3-1.6-5.6v-3.8c0-3.2,1.1-5.6,3.4-7.2c2.3-1.6,5.2-2.4,8.8-2.4s6.5,0.8,8.8,2.4
				C299.6,217.2,300.7,219.6,300.7,222.7z M285.2,222.2v5c0,0.8,0.3,1.5,0.9,2c0.6,0.5,1.4,0.7,2.4,0.7s1.8-0.2,2.4-0.7
				s0.9-1.1,0.9-2v-4.9c0-0.8-0.3-1.5-0.9-2s-1.4-0.7-2.4-0.7s-1.8,0.2-2.4,0.7C285.5,220.7,285.2,221.4,285.2,222.2z"/>
			<path d="M320.5,213.2h6.1c0.2,0,0.4,0.1,0.6,0.3c0.2,0.2,0.3,0.4,0.3,0.6v21.2c0,0.2-0.1,0.4-0.3,0.6s-0.4,0.3-0.6,0.3h-5.3
				c-0.5,0-1-0.2-1.3-0.7l-7.1-9.1v8.9c0,0.2-0.1,0.4-0.3,0.6s-0.4,0.3-0.6,0.3h-6.1c-0.2,0-0.4-0.1-0.6-0.3s-0.3-0.4-0.3-0.6v-21.2
				c0-0.2,0.1-0.4,0.3-0.6c0.2-0.2,0.4-0.3,0.6-0.3h5.3c0.5,0,1,0.2,1.3,0.7l7.1,9.9v-9.6c0-0.2,0.1-0.4,0.3-0.6
				C320.1,213.3,320.3,213.2,320.5,213.2z"/>
			<path d="M334.5,213.2h20.8c0.2,0,0.4,0.1,0.6,0.3c0.2,0.2,0.3,0.4,0.3,0.6v5c0,0.2-0.1,0.4-0.3,0.6s-0.4,0.3-0.6,0.3h-12.9v2.1
				h10.7c0.2,0,0.4,0.1,0.6,0.3s0.3,0.4,0.3,0.6v4.9c0,0.2-0.1,0.4-0.3,0.6s-0.4,0.3-0.6,0.3h-10.7v6.5c0,0.2-0.1,0.4-0.3,0.6
				c-0.2,0.2-0.4,0.3-0.6,0.3h-7.1c-0.2,0-0.4-0.1-0.6-0.3s-0.3-0.4-0.3-0.6v-21.2c0-0.2,0.1-0.4,0.3-0.6
				C334,213.3,334.2,213.2,334.5,213.2z"/>
		</g>
		<text transform="matrix(1 0 0 1 350.418 232)" class="st2 st3"> </text>
		<g class="st1">
			<path d="M189.6,268.3c0,4.8-3.1,7.2-9.2,7.2h-13.5c-0.2,0-0.4-0.1-0.6-0.3c-0.2-0.2-0.3-0.4-0.3-0.6v-21.2c0-0.2,0.1-0.4,0.3-0.6
				c0.2-0.2,0.4-0.3,0.6-0.3h13.2c3.1,0,5.4,0.6,6.9,1.7c1.5,1.1,2.2,2.8,2.2,5.1v0.1c0,1-0.3,1.9-0.9,2.7c-0.6,0.7-1.2,1.2-1.8,1.4
				c0.9,0.3,1.6,0.8,2.2,1.7S189.6,267.1,189.6,268.3z M179.9,260.7c0.2-0.3,0.3-0.7,0.3-1.1c0-0.4-0.1-0.7-0.3-1
				c-0.2-0.3-0.6-0.4-1-0.4h-4.4v3h4.4C179.4,261.2,179.7,261,179.9,260.7z M174.5,266.6v3.2h4.8c0.5,0,0.9-0.2,1.1-0.5
				c0.3-0.3,0.4-0.7,0.4-1.1v0c0-0.4-0.1-0.8-0.4-1.1c-0.3-0.3-0.6-0.5-1.1-0.5H174.5z"/>
			<path d="M213.7,273.1c-2.2,1.6-5.1,2.4-8.7,2.4s-6.6-0.8-8.7-2.4s-3.2-4-3.2-7.4v-12.4c0-0.2,0.1-0.4,0.3-0.6s0.4-0.3,0.6-0.3
				h6.8c0.2,0,0.4,0.1,0.6,0.3s0.3,0.4,0.3,0.6v12.8c0,0.9,0.3,1.6,0.9,2c0.6,0.5,1.4,0.7,2.4,0.7s1.8-0.2,2.4-0.7
				c0.6-0.5,0.9-1.1,0.9-2v-12.8c0-0.2,0.1-0.4,0.3-0.6s0.4-0.3,0.6-0.3h6.8c0.2,0,0.4,0.1,0.6,0.3s0.3,0.4,0.3,0.6v12.4
				C217,269.1,215.9,271.6,213.7,273.1z"/>
			<path d="M222.3,252.5h10.5c2.4,0,4.5,0.3,6.3,1c1.8,0.6,3.2,1.7,4.3,3.2s1.6,3.4,1.6,5.6v3.3c0,3.5-1.2,6-3.5,7.6
				c-2.2,1.4-5,2.2-8.6,2.2h-10.5c-0.2,0-0.4-0.1-0.6-0.3s-0.3-0.4-0.3-0.6v-21.2c0-0.2,0.1-0.4,0.3-0.6
				C221.9,252.6,222.1,252.5,222.3,252.5z M229.9,258.9v10.2h3c1,0,1.8-0.2,2.4-0.7s0.9-1.2,0.9-2.1v-4.5c0-0.9-0.3-1.6-0.9-2.1
				s-1.4-0.7-2.4-0.7H229.9z"/>
			<path d="M254.5,275.5h-6.2c-0.2,0-0.4-0.1-0.5-0.2c-0.1-0.1-0.2-0.3-0.2-0.4c0-0.1,0-0.2,0-0.3l7.1-20.9c0.2-0.7,0.7-1.1,1.5-1.1
				h9.1c0.8,0,1.3,0.4,1.5,1.1l7.1,20.9c0,0.1,0,0.2,0,0.3c0,0.1-0.1,0.3-0.2,0.4c-0.1,0.1-0.3,0.2-0.5,0.2h-6.2
				c-0.7,0-1.2-0.4-1.5-1.1l-0.8-2.3h-8l-0.8,2.3C255.7,275.1,255.2,275.5,254.5,275.5z M263.1,265.7l-2.3-6.8l-2.3,6.8H263.1z"/>
			<path d="M279.6,252.5h12.3c3.1,0,5.6,0.8,7.4,2.3c1.8,1.5,2.7,3.4,2.7,5.8s-0.8,4.2-2.3,5.6c-1.5,1.4-4.1,2.1-7.8,2.1h-4.3v6.3
				c0,0.2-0.1,0.4-0.3,0.6s-0.4,0.3-0.6,0.3h-7c-0.2,0-0.4-0.1-0.6-0.3s-0.3-0.4-0.3-0.6v-21.2c0-0.2,0.1-0.4,0.3-0.6
				C279.2,252.6,279.4,252.5,279.6,252.5z M287.6,258.6v3.6h4.2c0.5,0,0.9-0.2,1.2-0.5s0.5-0.7,0.5-1.3s-0.2-1-0.5-1.3
				c-0.3-0.3-0.7-0.5-1.2-0.5H287.6z"/>
			<path d="M313.9,269.1H327c0.2,0,0.4,0.1,0.6,0.3s0.3,0.4,0.3,0.6v4.6c0,0.2-0.1,0.4-0.3,0.6s-0.4,0.3-0.6,0.3h-20.7
				c-0.2,0-0.4-0.1-0.6-0.3s-0.3-0.4-0.3-0.6v-21.2c0-0.2,0.1-0.4,0.3-0.6c0.2-0.2,0.4-0.3,0.6-0.3h20.4c0.2,0,0.4,0.1,0.6,0.3
				c0.2,0.2,0.3,0.4,0.3,0.6v4.6c0,0.2-0.1,0.4-0.3,0.6s-0.4,0.3-0.6,0.3h-12.7v2.1h10.9c0.2,0,0.4,0.1,0.6,0.3s0.3,0.4,0.3,0.6v4.3
				c0,0.2-0.1,0.4-0.3,0.6s-0.4,0.3-0.6,0.3h-10.9V269.1z"/>
			<path d="M353.7,263.3c1.5,1.1,2.3,2.7,2.3,4.9c0,2.2-1.1,3.9-3.3,5.3c-2.2,1.3-5.1,2-8.8,2s-6.5-0.7-8.5-2c-2-1.3-3-3-3-4.9
				c0-0.5,0.3-0.7,0.8-0.7h6.7c0.5,0,0.8,0.1,1.1,0.4c0.6,0.6,1.7,0.8,3.2,0.8c2.1,0,3.1-0.3,3.1-0.9c0-0.4-0.3-0.7-1-0.9
				c-0.7-0.2-2-0.4-3.9-0.6c-6.2-0.7-9.3-3-9.3-6.9c0-2.2,1-3.9,3-5.3c2-1.3,4.6-2,8-2c3.3,0,6,0.7,8.1,2.2s3.1,3,3.1,4.6
				c0,0.2-0.1,0.4-0.2,0.5s-0.3,0.2-0.6,0.2h-7c-0.4,0-0.7-0.1-1-0.4c-0.5-0.5-1.3-0.7-2.4-0.7c-1.5,0-2.2,0.3-2.2,0.9
				c0,0.3,0.3,0.6,0.9,0.7c0.6,0.2,1.7,0.4,3.4,0.6C349.6,261.5,352.2,262.2,353.7,263.3z"/>
			<path d="M360.8,252.5h22.6c0.2,0,0.4,0.1,0.6,0.3c0.2,0.2,0.3,0.4,0.3,0.6v5.3c0,0.2-0.1,0.4-0.3,0.6c-0.2,0.2-0.4,0.3-0.6,0.3
				h-7v15c0,0.2-0.1,0.4-0.3,0.6c-0.2,0.2-0.4,0.3-0.6,0.3h-6.7c-0.2,0-0.4-0.1-0.6-0.3s-0.3-0.4-0.3-0.6v-15h-7
				c-0.2,0-0.4-0.1-0.6-0.3s-0.3-0.4-0.3-0.6v-5.3c0-0.2,0.1-0.4,0.3-0.6C360.3,252.6,360.5,252.5,360.8,252.5z"/>
		</g>
		<text transform="matrix(1 0 0 1 341.418 274)" class="st2 st3"> </text>
	</g>
</g>
</svg>
